<?xml version="1.0" encoding="UTF-8"?>
<svg xmlns="http://www.w3.org/2000/svg" xmlns:xlink="http://www.w3.org/1999/xlink" viewBox="0 0 50 50" width="50px" height="50px">
<g id="surface9307669">
<path style=" stroke:none;fill-rule:nonzero;fill:rgb(100%,100%,100%);fill-opacity:1;" d="M 24.984375 2.984375 C 24.878906 2.988281 24.777344 3.003906 24.679688 3.039062 C 22.984375 3.0625 21.316406 3.246094 19.738281 3.640625 C 19.054688 3.808594 18.378906 4.019531 17.703125 4.261719 C 17.542969 4.28125 17.390625 4.339844 17.253906 4.429688 C 16.398438 4.742188 15.5625 5.109375 14.769531 5.527344 C 13.472656 6.203125 12.253906 7.039062 11.113281 7.972656 C 10.960938 8.035156 10.828125 8.132812 10.722656 8.257812 C 10.617188 8.347656 10.511719 8.4375 10.40625 8.53125 C 9.085938 9.707031 7.90625 11.035156 6.886719 12.5 C 6.589844 12.929688 6.316406 13.378906 6.050781 13.828125 C 5.949219 13.945312 5.871094 14.089844 5.832031 14.242188 C 4.675781 16.285156 3.84375 18.535156 3.402344 20.914062 C 3.335938 21.058594 3.304688 21.210938 3.304688 21.367188 C 3.25 21.691406 3.191406 22.019531 3.15625 22.363281 C 3.050781 23.230469 3 24.105469 3 25 C 3 25.894531 3.050781 26.769531 3.15625 27.632812 C 3.191406 27.980469 3.25 28.308594 3.304688 28.632812 C 3.304688 28.789062 3.335938 28.941406 3.402344 29.082031 C 3.84375 31.460938 4.675781 33.710938 5.828125 35.753906 C 5.867188 35.910156 5.945312 36.050781 6.050781 36.171875 C 6.316406 36.621094 6.589844 37.070312 6.886719 37.5 C 7.90625 38.96875 9.089844 40.285156 10.402344 41.464844 C 10.503906 41.558594 10.613281 41.648438 10.71875 41.734375 L 10.71875 41.738281 C 10.828125 41.867188 10.960938 41.96875 11.117188 42.027344 C 12.257812 42.960938 13.472656 43.796875 14.769531 44.472656 C 15.5625 44.890625 16.398438 45.257812 17.253906 45.570312 C 17.390625 45.660156 17.542969 45.71875 17.703125 45.734375 C 18.375 45.980469 19.054688 46.191406 19.738281 46.359375 C 21.316406 46.753906 22.984375 46.9375 24.679688 46.960938 C 24.886719 47.03125 25.113281 47.03125 25.320312 46.960938 C 27.015625 46.9375 28.683594 46.753906 30.261719 46.359375 C 30.945312 46.191406 31.621094 45.980469 32.296875 45.734375 C 32.457031 45.71875 32.609375 45.660156 32.746094 45.570312 C 33.601562 45.257812 34.4375 44.890625 35.230469 44.472656 C 36.527344 43.796875 37.746094 42.960938 38.886719 42.027344 C 39.039062 41.964844 39.171875 41.867188 39.277344 41.738281 C 39.386719 41.648438 39.492188 41.5625 39.597656 41.464844 C 40.910156 40.285156 42.09375 38.96875 43.113281 37.5 C 43.410156 37.070312 43.683594 36.621094 43.949219 36.171875 C 44.050781 36.054688 44.128906 35.910156 44.167969 35.757812 C 45.324219 33.714844 46.15625 31.464844 46.597656 29.082031 C 46.664062 28.941406 46.695312 28.789062 46.695312 28.632812 C 46.75 28.308594 46.808594 27.980469 46.84375 27.632812 C 46.949219 26.769531 47 25.894531 47 25 C 47 24.105469 46.949219 23.230469 46.84375 22.363281 C 46.808594 22.019531 46.75 21.691406 46.695312 21.367188 C 46.695312 21.210938 46.664062 21.058594 46.597656 20.917969 C 46.15625 18.539062 45.324219 16.289062 44.171875 14.246094 C 44.132812 14.089844 44.054688 13.949219 43.949219 13.828125 C 43.683594 13.378906 43.410156 12.929688 43.113281 12.5 L 43.113281 12.496094 C 42.09375 11.03125 40.910156 9.703125 39.59375 8.53125 C 39.492188 8.4375 39.386719 8.351562 39.28125 8.261719 C 39.171875 8.132812 39.039062 8.03125 38.882812 7.96875 C 37.742188 7.039062 36.527344 6.203125 35.230469 5.527344 C 34.4375 5.109375 33.601562 4.742188 32.746094 4.429688 C 32.609375 4.339844 32.457031 4.28125 32.296875 4.261719 C 31.625 4.019531 30.945312 3.808594 30.261719 3.640625 C 28.683594 3.246094 27.015625 3.0625 25.320312 3.039062 C 25.210938 3.003906 25.097656 2.984375 24.984375 2.984375 Z M 17.492188 4.328125 C 17.484375 4.328125 17.476562 4.332031 17.472656 4.335938 C 17.46875 4.335938 17.464844 4.335938 17.460938 4.339844 Z M 32.507812 4.328125 L 32.539062 4.339844 C 32.535156 4.335938 32.53125 4.335938 32.527344 4.335938 C 32.523438 4.332031 32.515625 4.328125 32.507812 4.328125 Z M 24 5.121094 L 24 9.117188 C 23.039062 9.179688 22.078125 9.238281 21.171875 9.457031 C 20.941406 9.515625 20.714844 9.601562 20.484375 9.667969 L 19.117188 5.914062 C 19.484375 5.804688 19.832031 5.675781 20.214844 5.582031 C 20.21875 5.582031 20.222656 5.582031 20.222656 5.578125 C 21.421875 5.28125 22.710938 5.1875 24 5.121094 Z M 26 5.121094 C 27.289062 5.1875 28.574219 5.28125 29.777344 5.578125 C 29.777344 5.582031 29.78125 5.582031 29.78125 5.582031 C 30.167969 5.675781 30.515625 5.804688 30.878906 5.914062 L 29.511719 9.667969 C 29.285156 9.601562 29.058594 9.515625 28.828125 9.460938 C 28.828125 9.460938 28.828125 9.460938 28.824219 9.460938 C 27.921875 9.238281 26.960938 9.179688 26 9.121094 Z M 17.246094 6.613281 L 18.609375 10.371094 C 18.261719 10.523438 17.90625 10.652344 17.5625 10.835938 L 17.5625 10.839844 C 17.027344 11.121094 16.546875 11.515625 16.039062 11.859375 C 15.835938 11.882812 15.644531 11.972656 15.492188 12.113281 L 12.976562 9.117188 C 13.851562 8.457031 14.734375 7.800781 15.699219 7.296875 C 15.703125 7.296875 15.707031 7.292969 15.707031 7.292969 C 16.210938 7.027344 16.730469 6.832031 17.246094 6.613281 Z M 32.753906 6.613281 C 33.269531 6.832031 33.789062 7.027344 34.292969 7.292969 C 34.292969 7.292969 34.296875 7.296875 34.300781 7.296875 C 35.265625 7.800781 36.148438 8.457031 37.023438 9.117188 L 34.507812 12.113281 C 34.355469 11.972656 34.164062 11.886719 33.960938 11.859375 C 33.453125 11.515625 32.972656 11.121094 32.4375 10.835938 C 32.097656 10.652344 31.738281 10.523438 31.390625 10.367188 Z M 11.425781 10.378906 L 14.003906 13.453125 C 13.214844 14.207031 12.453125 15.003906 11.824219 15.914062 C 11.769531 15.992188 11.730469 16.074219 11.675781 16.15625 L 8.207031 14.152344 C 8.316406 13.984375 8.417969 13.804688 8.53125 13.640625 C 9.367188 12.433594 10.363281 11.367188 11.425781 10.378906 Z M 38.574219 10.378906 C 39.636719 11.367188 40.632812 12.433594 41.46875 13.640625 C 41.582031 13.804688 41.683594 13.984375 41.789062 14.152344 L 38.324219 16.15625 C 38.269531 16.074219 38.230469 15.992188 38.171875 15.914062 L 38.167969 15.910156 C 37.542969 15 36.785156 14.207031 35.992188 13.453125 Z M 24 11.121094 L 24 15.050781 C 22.539062 15.195312 21.175781 15.664062 19.96875 16.371094 L 17.644531 13.175781 C 17.9375 12.996094 18.191406 12.765625 18.496094 12.605469 C 18.5 12.605469 18.503906 12.601562 18.503906 12.597656 C 19.011719 12.324219 19.558594 12.09375 20.113281 11.882812 C 20.1875 11.867188 20.261719 11.835938 20.332031 11.800781 C 20.753906 11.644531 21.183594 11.515625 21.648438 11.402344 C 22.402344 11.21875 23.203125 11.175781 24 11.121094 Z M 26 11.121094 C 26.796875 11.175781 27.597656 11.21875 28.351562 11.402344 C 28.816406 11.515625 29.25 11.644531 29.671875 11.800781 C 29.742188 11.839844 29.816406 11.867188 29.894531 11.886719 C 30.445312 12.09375 30.988281 12.324219 31.496094 12.597656 C 31.496094 12.601562 31.5 12.605469 31.503906 12.605469 C 31.808594 12.765625 32.0625 12.996094 32.355469 13.175781 L 30.03125 16.371094 C 28.824219 15.664062 27.460938 15.195312 26 15.050781 Z M 15.992188 14.304688 L 18.351562 17.554688 C 17.292969 18.5 16.433594 19.664062 15.851562 20.976562 L 12.054688 19.742188 C 12.277344 19.171875 12.527344 18.617188 12.828125 18.097656 C 12.875 18.035156 12.914062 17.964844 12.945312 17.894531 C 13.113281 17.601562 13.285156 17.320312 13.472656 17.054688 C 13.472656 17.050781 13.472656 17.050781 13.472656 17.050781 C 14.117188 16.117188 14.875 15.265625 15.714844 14.519531 C 15.714844 14.515625 15.71875 14.515625 15.71875 14.515625 C 15.78125 14.457031 15.816406 14.429688 15.859375 14.394531 C 15.859375 14.390625 15.863281 14.390625 15.863281 14.390625 C 15.910156 14.363281 15.953125 14.335938 15.992188 14.304688 Z M 34.007812 14.304688 C 34.046875 14.332031 34.089844 14.363281 34.132812 14.386719 C 34.179688 14.425781 34.214844 14.457031 34.28125 14.515625 C 34.28125 14.515625 34.285156 14.515625 34.285156 14.519531 C 35.125 15.265625 35.882812 16.117188 36.527344 17.050781 C 36.527344 17.050781 36.527344 17.050781 36.53125 17.054688 C 36.714844 17.320312 36.886719 17.601562 37.058594 17.894531 C 37.085938 17.96875 37.125 18.039062 37.175781 18.105469 C 37.472656 18.617188 37.722656 19.171875 37.953125 19.738281 L 34.148438 20.980469 C 33.566406 19.664062 32.707031 18.5 31.648438 17.554688 Z M 7.25 15.90625 L 10.714844 17.90625 C 10.484375 18.371094 10.230469 18.828125 10.046875 19.316406 L 10.046875 19.320312 C 9.996094 19.453125 9.980469 19.601562 9.929688 19.738281 C 9.765625 19.949219 9.691406 20.214844 9.722656 20.476562 C 9.648438 20.730469 9.570312 20.988281 9.507812 21.25 L 5.5625 20.554688 C 5.929688 18.917969 6.5 17.363281 7.25 15.90625 Z M 42.75 15.90625 C 43.5 17.363281 44.070312 18.917969 44.4375 20.554688 L 40.496094 21.246094 C 40.433594 20.980469 40.355469 20.71875 40.277344 20.460938 C 40.304688 20.207031 40.234375 19.957031 40.082031 19.753906 C 40.03125 19.613281 40.015625 19.457031 39.960938 19.316406 C 39.773438 18.832031 39.519531 18.371094 39.285156 17.90625 Z M 24.882812 17.003906 C 24.964844 17.015625 25.042969 17.015625 25.125 17.003906 C 26.75 17.03125 28.257812 17.53125 29.507812 18.382812 C 29.605469 18.503906 29.730469 18.597656 29.871094 18.660156 C 31.082031 19.585938 32.007812 20.847656 32.527344 22.3125 C 32.542969 22.472656 32.59375 22.625 32.679688 22.757812 C 32.882812 23.472656 33 24.222656 33 25 C 33 25.777344 32.882812 26.527344 32.679688 27.234375 C 32.59375 27.371094 32.542969 27.527344 32.527344 27.6875 C 32.007812 29.148438 31.082031 30.410156 29.878906 31.339844 C 29.734375 31.398438 29.609375 31.496094 29.507812 31.617188 C 28.253906 32.46875 26.746094 32.96875 25.117188 32.996094 C 25.035156 32.984375 24.957031 32.984375 24.875 32.996094 C 21.445312 32.941406 18.558594 30.75 17.472656 27.6875 C 17.457031 27.527344 17.40625 27.375 17.320312 27.242188 C 17.117188 26.527344 17 25.777344 17 25 C 17 24.222656 17.117188 23.472656 17.320312 22.765625 C 17.40625 22.628906 17.457031 22.472656 17.472656 22.3125 C 18.558594 19.25 21.449219 17.054688 24.882812 17.003906 Z M 38.542969 21.648438 C 38.609375 21.921875 38.71875 22.183594 38.769531 22.464844 C 38.773438 22.542969 38.789062 22.617188 38.8125 22.695312 C 38.84375 22.902344 38.875 23.109375 38.898438 23.300781 C 38.894531 23.304688 38.894531 23.304688 38.898438 23.308594 C 38.960938 23.863281 39 24.433594 39 25 C 39 25.566406 38.960938 26.136719 38.898438 26.691406 C 38.894531 26.695312 38.894531 26.695312 38.898438 26.699219 C 38.875 26.894531 38.84375 27.097656 38.8125 27.3125 C 38.789062 27.382812 38.773438 27.457031 38.769531 27.535156 C 38.71875 27.816406 38.609375 28.074219 38.542969 28.351562 L 34.765625 27.125 C 34.917969 26.4375 35 25.730469 35 25 C 35 24.269531 34.917969 23.5625 34.765625 22.878906 Z M 11.460938 21.652344 L 15.234375 22.878906 C 15.082031 23.5625 15 24.269531 15 25 C 15 25.730469 15.082031 26.4375 15.234375 27.121094 L 11.460938 28.347656 C 11.390625 28.074219 11.28125 27.8125 11.230469 27.53125 C 11.226562 27.457031 11.210938 27.378906 11.1875 27.304688 C 11.15625 27.097656 11.125 26.890625 11.101562 26.699219 C 11.105469 26.695312 11.105469 26.695312 11.101562 26.691406 C 11.039062 26.136719 11 25.566406 11 25 C 11 24.433594 11.039062 23.863281 11.101562 23.308594 C 11.105469 23.304688 11.105469 23.304688 11.101562 23.300781 C 11.125 23.105469 11.15625 22.902344 11.1875 22.6875 C 11.210938 22.617188 11.222656 22.542969 11.230469 22.46875 C 11.28125 22.1875 11.390625 21.925781 11.460938 21.648438 Z M 5.152344 22.511719 L 9.109375 23.210938 C 9.042969 23.792969 9 24.394531 9 25 C 9 25.605469 9.042969 26.207031 9.109375 26.789062 L 5.152344 27.488281 C 5.152344 27.46875 5.148438 27.445312 5.144531 27.425781 C 5.144531 27.421875 5.144531 27.414062 5.140625 27.410156 C 5.046875 26.621094 5 25.820312 5 25 C 5 24.179688 5.046875 23.378906 5.140625 22.589844 C 5.144531 22.585938 5.144531 22.578125 5.144531 22.574219 C 5.148438 22.554688 5.152344 22.53125 5.152344 22.511719 Z M 44.847656 22.511719 C 44.847656 22.53125 44.851562 22.554688 44.855469 22.574219 C 44.855469 22.578125 44.855469 22.585938 44.859375 22.589844 C 44.953125 23.378906 45 24.179688 45 25 C 45 25.820312 44.953125 26.621094 44.859375 27.410156 C 44.855469 27.414062 44.855469 27.421875 44.855469 27.425781 C 44.851562 27.445312 44.847656 27.46875 44.847656 27.488281 L 40.890625 26.792969 C 40.957031 26.207031 41 25.605469 41 25 C 41 24.394531 40.957031 23.792969 40.890625 23.210938 Z M 9.507812 28.753906 C 9.570312 29.011719 9.648438 29.269531 9.722656 29.527344 C 9.691406 29.789062 9.765625 30.054688 9.929688 30.261719 C 9.980469 30.398438 9.996094 30.546875 10.046875 30.683594 C 10.230469 31.171875 10.484375 31.628906 10.714844 32.09375 L 7.25 34.09375 C 6.5 32.636719 5.929688 31.082031 5.5625 29.449219 Z M 40.496094 28.753906 L 44.4375 29.445312 C 44.070312 31.082031 43.5 32.636719 42.75 34.09375 L 39.285156 32.097656 C 39.519531 31.628906 39.773438 31.167969 39.960938 30.683594 C 40.015625 30.542969 40.03125 30.386719 40.082031 30.246094 C 40.234375 30.042969 40.304688 29.789062 40.277344 29.539062 C 40.355469 29.277344 40.433594 29.015625 40.496094 28.753906 Z M 15.851562 29.023438 C 16.433594 30.335938 17.292969 31.5 18.351562 32.445312 L 15.992188 35.695312 C 15.953125 35.667969 15.910156 35.636719 15.867188 35.613281 C 15.820312 35.574219 15.785156 35.542969 15.71875 35.484375 C 15.71875 35.484375 15.714844 35.484375 15.714844 35.480469 C 14.875 34.734375 14.117188 33.882812 13.472656 32.949219 C 13.472656 32.949219 13.472656 32.949219 13.46875 32.945312 C 13.285156 32.679688 13.113281 32.398438 12.941406 32.105469 C 12.914062 32.03125 12.875 31.960938 12.824219 31.894531 C 12.527344 31.378906 12.277344 30.828125 12.050781 30.257812 Z M 34.148438 29.023438 L 37.953125 30.261719 C 37.722656 30.832031 37.472656 31.386719 37.171875 31.902344 C 37.125 31.964844 37.085938 32.035156 37.058594 32.109375 C 36.886719 32.398438 36.714844 32.679688 36.53125 32.945312 C 36.527344 32.949219 36.527344 32.949219 36.527344 32.953125 C 35.882812 33.882812 35.125 34.734375 34.285156 35.484375 C 34.285156 35.484375 34.28125 35.484375 34.28125 35.488281 C 34.21875 35.542969 34.183594 35.570312 34.140625 35.609375 C 34.140625 35.609375 34.136719 35.609375 34.136719 35.609375 C 34.089844 35.636719 34.046875 35.664062 34.007812 35.699219 L 31.644531 32.449219 C 32.707031 31.5 33.566406 30.335938 34.148438 29.023438 Z M 19.96875 33.628906 C 21.175781 34.335938 22.539062 34.804688 24 34.949219 L 24 38.878906 C 23.203125 38.824219 22.402344 38.78125 21.648438 38.597656 C 21.183594 38.484375 20.75 38.355469 20.328125 38.199219 C 20.257812 38.160156 20.183594 38.132812 20.105469 38.113281 C 19.554688 37.90625 19.011719 37.675781 18.503906 37.402344 C 18.503906 37.398438 18.5 37.394531 18.496094 37.394531 C 18.191406 37.234375 17.9375 37.003906 17.644531 36.824219 Z M 30.03125 33.628906 L 32.355469 36.824219 C 32.0625 37.003906 31.808594 37.234375 31.503906 37.394531 C 31.5 37.394531 31.496094 37.398438 31.496094 37.402344 C 30.988281 37.675781 30.441406 37.90625 29.886719 38.117188 C 29.8125 38.132812 29.738281 38.164062 29.667969 38.199219 C 29.246094 38.355469 28.816406 38.484375 28.351562 38.597656 C 27.597656 38.78125 26.796875 38.824219 26 38.878906 L 26 34.949219 C 27.460938 34.804688 28.824219 34.335938 30.03125 33.628906 Z M 11.675781 33.847656 C 11.730469 33.925781 11.773438 34.011719 11.828125 34.089844 C 12.457031 35 13.214844 35.792969 14.003906 36.546875 L 11.425781 39.621094 C 10.359375 38.625 9.363281 37.5625 8.53125 36.359375 C 8.417969 36.195312 8.316406 36.015625 8.210938 35.847656 Z M 38.324219 33.847656 L 41.789062 35.847656 C 41.683594 36.015625 41.582031 36.195312 41.46875 36.359375 C 41.46875 36.359375 41.46875 36.359375 41.46875 36.363281 C 40.636719 37.5625 39.640625 38.625 38.574219 39.625 L 35.996094 36.550781 C 36.785156 35.792969 37.542969 35 38.171875 34.09375 L 38.175781 34.089844 C 38.230469 34.007812 38.269531 33.925781 38.324219 33.847656 Z M 15.496094 37.886719 C 15.644531 38.027344 15.835938 38.117188 16.039062 38.140625 C 16.546875 38.484375 17.027344 38.878906 17.5625 39.160156 L 17.566406 39.164062 C 17.90625 39.347656 18.261719 39.476562 18.613281 39.628906 L 17.246094 43.386719 C 16.730469 43.167969 16.210938 42.972656 15.710938 42.707031 C 15.707031 42.707031 15.703125 42.703125 15.703125 42.703125 C 14.734375 42.199219 13.851562 41.542969 12.976562 40.882812 Z M 34.503906 37.890625 L 37.023438 40.882812 C 36.148438 41.542969 35.265625 42.199219 34.296875 42.703125 C 34.296875 42.703125 34.292969 42.707031 34.289062 42.707031 C 33.789062 42.972656 33.269531 43.167969 32.753906 43.386719 L 31.386719 39.628906 C 31.738281 39.476562 32.09375 39.347656 32.433594 39.164062 L 32.4375 39.160156 C 32.972656 38.878906 33.453125 38.484375 33.960938 38.140625 C 34.164062 38.117188 34.355469 38.027344 34.503906 37.886719 Z M 20.484375 40.332031 C 20.714844 40.398438 20.941406 40.484375 21.171875 40.539062 C 22.078125 40.761719 23.039062 40.820312 24 40.878906 L 24 44.878906 C 22.710938 44.8125 21.425781 44.71875 20.222656 44.417969 C 20.222656 44.417969 20.21875 44.417969 20.21875 44.417969 C 19.832031 44.324219 19.484375 44.195312 19.121094 44.082031 Z M 29.515625 40.332031 L 30.882812 44.085938 C 30.515625 44.195312 30.167969 44.324219 29.785156 44.417969 C 29.78125 44.417969 29.777344 44.417969 29.777344 44.421875 C 28.578125 44.71875 27.289062 44.8125 26 44.878906 L 26 40.882812 C 26.960938 40.820312 27.921875 40.761719 28.828125 40.542969 C 29.058594 40.484375 29.285156 40.398438 29.515625 40.332031 Z M 17.460938 45.660156 C 17.464844 45.664062 17.46875 45.664062 17.472656 45.664062 C 17.476562 45.667969 17.484375 45.671875 17.492188 45.671875 Z M 32.539062 45.660156 L 32.507812 45.671875 C 32.515625 45.671875 32.523438 45.667969 32.527344 45.664062 C 32.53125 45.664062 32.535156 45.664062 32.539062 45.660156 Z M 32.539062 45.660156 "/>
</g>
</svg>
